<svg xmlns="http://www.w3.org/2000/svg" viewBox="0 0 64 64">
  <!-- Chokladboll - Swedish chocolate ball with coconut -->

  <!-- Shadow -->
  <ellipse cx="32" cy="56" rx="18" ry="5" fill="#00000020"/>

  <!-- Main chocolate ball -->
  <circle cx="32" cy="32" r="24" fill="#5D3A1A"/>

  <!-- Darker shading -->
  <path d="M32 8 A24 24 0 0 1 56 32 A24 24 0 0 1 32 56 A24 24 0 0 1 8 32 A24 24 0 0 1 32 8" fill="#4A2E15"/>

  <!-- Lighter highlight -->
  <ellipse cx="24" cy="22" rx="12" ry="10" fill="#6B4423" opacity="0.7"/>
  <ellipse cx="22" cy="20" rx="6" ry="5" fill="#7A5030" opacity="0.5"/>

  <!-- Coconut/pearl sugar flakes -->
  <circle cx="20" cy="18" r="2.5" fill="#F5F5F0"/>
  <circle cx="28" cy="14" r="2" fill="#FFFEF8"/>
  <circle cx="38" cy="16" r="2.2" fill="#F8F8F2"/>
  <circle cx="44" cy="22" r="2" fill="#FFFEFA"/>
  <circle cx="48" cy="32" r="2.3" fill="#F5F5F0"/>
  <circle cx="46" cy="42" r="2" fill="#FFFEF8"/>
  <circle cx="40" cy="48" r="2.2" fill="#F8F8F2"/>
  <circle cx="30" cy="52" r="2" fill="#FFFEFA"/>
  <circle cx="20" cy="48" r="2.5" fill="#F5F5F0"/>
  <circle cx="14" cy="40" r="2" fill="#FFFEF8"/>
  <circle cx="12" cy="28" r="2.2" fill="#F8F8F2"/>
  <circle cx="16" cy="32" r="1.8" fill="#FFFEFA"/>
  <circle cx="24" cy="26" r="1.5" fill="#F5F5F0"/>
  <circle cx="34" cy="24" r="2" fill="#FFFEF8"/>
  <circle cx="42" cy="30" r="1.8" fill="#F8F8F2"/>
  <circle cx="38" cy="38" r="2" fill="#FFFEFA"/>
  <circle cx="28" cy="42" r="2.2" fill="#F5F5F0"/>
  <circle cx="22" cy="38" r="1.8" fill="#FFFEF8"/>
  <circle cx="32" cy="34" r="1.5" fill="#F8F8F2"/>
  <circle cx="26" cy="32" r="1.6" fill="#FFFEFA"/>
  <circle cx="36" cy="44" r="1.8" fill="#F5F5F0"/>
  <circle cx="44" cy="36" r="1.5" fill="#FFFEF8"/>
  <circle cx="18" cy="24" r="1.8" fill="#F8F8F2"/>
</svg>
